<svg xmlns="http://www.w3.org/2000/svg" width="1700" height="1060" viewBox="0 0 1700 1060">
<title>子系统二：0层DFD图</title>
<defs>
<linearGradient id="paper" x1="0" y1="0" x2="1" y2="1"><stop offset="0" stop-color="#FFFFFF"/><stop offset="1" stop-color="#F7FBFF"/></linearGradient>
<pattern id="grid" width="32" height="32" patternUnits="userSpaceOnUse"><path d="M32 0H0V32" fill="none" stroke="#EEF4FA" stroke-width="1"/></pattern>
<marker id="arrow" markerWidth="12" markerHeight="12" refX="10" refY="6" orient="auto" markerUnits="strokeWidth">
<path d="M2,2 L10,6 L2,10 Z" fill="#375A7F"/>
</marker>
<marker id="arrow-orange" markerWidth="12" markerHeight="12" refX="10" refY="6" orient="auto" markerUnits="strokeWidth">
<path d="M2,2 L10,6 L2,10 Z" fill="#C56A1A"/>
</marker>
<filter id="shadow" x="-8%" y="-8%" width="116%" height="116%"><feDropShadow dx="0" dy="2" stdDeviation="2" flood-color="#94A3B8" flood-opacity=".28"/></filter>
</defs>
<rect x="0" y="0" width="1700" height="1060" fill="#FFFFFF"/>
<rect x="26" y="24" width="1648" height="1012" rx="16" fill="url(#paper)" stroke="#D9E2EC" stroke-width="2"/>
<rect x="42" y="124" width="1616" height="884" fill="url(#grid)" opacity=".55"/>
<rect x="640" y="36" width="420" height="5" rx="3" fill="#2F80ED"/>
<text x="850" y="78" text-anchor="middle" font-family="Microsoft YaHei,SimHei,Noto Sans CJK SC,Arial,sans-serif" font-size="34" font-weight="700" fill="#173A5E">子系统二：0层DFD图</text>
<text x="850" y="112" text-anchor="middle" font-family="Microsoft YaHei,SimHei,Noto Sans CJK SC,Arial,sans-serif" font-size="18" fill="#64748B">0层数据流图：核心处理过程分解</text>
<rect x="70" y="210" width="230" height="82" rx="10" fill="#FFFFFF" stroke="#64748B" stroke-width="2" filter="url(#shadow)"/>
<text x="88" y="242" font-size="17" font-weight="700" fill="#172033"><tspan x="88" dy="0">普通用户</tspan></text>
<text x="88" y="274" font-size="14" font-weight="400" fill="#172033"><tspan x="88" dy="0">外部实体</tspan></text>
<rect x="70" y="410" width="230" height="82" rx="10" fill="#FFFFFF" stroke="#64748B" stroke-width="2" filter="url(#shadow)"/>
<text x="88" y="442" font-size="17" font-weight="700" fill="#172033"><tspan x="88" dy="0">保洁人员</tspan></text>
<text x="88" y="474" font-size="14" font-weight="400" fill="#172033"><tspan x="88" dy="0">外部实体</tspan></text>
<rect x="70" y="610" width="230" height="82" rx="10" fill="#FFFFFF" stroke="#64748B" stroke-width="2" filter="url(#shadow)"/>
<text x="88" y="642" font-size="17" font-weight="700" fill="#172033"><tspan x="88" dy="0">负责人</tspan></text>
<text x="88" y="674" font-size="14" font-weight="400" fill="#172033"><tspan x="88" dy="0">外部实体</tspan></text>
<rect x="70" y="810" width="230" height="82" rx="10" fill="#FFFFFF" stroke="#64748B" stroke-width="2" filter="url(#shadow)"/>
<text x="88" y="842" font-size="17" font-weight="700" fill="#172033"><tspan x="88" dy="0">管理员</tspan></text>
<text x="88" y="874" font-size="14" font-weight="400" fill="#172033"><tspan x="88" dy="0">外部实体</tspan></text>
<rect x="430" y="190" width="235" height="160" rx="10" fill="#EAF4FF" stroke="#2F80ED" stroke-width="2" filter="url(#shadow)"/>
<text x="448" y="222" font-size="17" font-weight="700" fill="#172033"><tspan x="448" dy="0">P1 评论管理</tspan></text>
<text x="448" y="254" font-size="14" font-weight="400" fill="#172033"><tspan x="448" dy="0">发表、审核、隐藏、归档</tspan></text>
<line x1="300" y1="250" x2="430" y2="270" stroke="#375A7F" stroke-width="2.5" marker-end="url(#arrow)"/>
<rect x="273" y="238" width="184" height="28" rx="6" fill="#FFFFFF" stroke="#D9E2EC"/>
<text x="365" y="257" text-anchor="middle" font-family="Microsoft YaHei,SimHei,Noto Sans CJK SC,Arial,sans-serif" font-size="14" fill="#172033">输入</text>
<rect x="735" y="190" width="235" height="160" rx="10" fill="#EAF4FF" stroke="#2F80ED" stroke-width="2" filter="url(#shadow)"/>
<text x="753" y="222" font-size="17" font-weight="700" fill="#172033"><tspan x="753" dy="0">P2 运维管理</tspan></text>
<text x="753" y="254" font-size="14" font-weight="400" fill="#172033"><tspan x="753" dy="0">清洁打卡、维护记录</tspan></text>
<line x1="300" y1="450" x2="735" y2="270" stroke="#375A7F" stroke-width="2.5" marker-end="url(#arrow)"/>
<rect x="425" y="338" width="184" height="28" rx="6" fill="#FFFFFF" stroke="#D9E2EC"/>
<text x="517" y="357" text-anchor="middle" font-family="Microsoft YaHei,SimHei,Noto Sans CJK SC,Arial,sans-serif" font-size="14" fill="#172033">输入</text>
<rect x="1040" y="190" width="235" height="160" rx="10" fill="#EAF4FF" stroke="#2F80ED" stroke-width="2" filter="url(#shadow)"/>
<text x="1058" y="222" font-size="17" font-weight="700" fill="#172033"><tspan x="1058" dy="0">P3 负责人管理</tspan></text>
<text x="1058" y="254" font-size="14" font-weight="400" fill="#172033"><tspan x="1058" dy="0">责任人配置、待办处理</tspan></text>
<line x1="300" y1="650" x2="1040" y2="270" stroke="#375A7F" stroke-width="2.5" marker-end="url(#arrow)"/>
<rect x="578" y="438" width="184" height="28" rx="6" fill="#FFFFFF" stroke="#D9E2EC"/>
<text x="670" y="457" text-anchor="middle" font-family="Microsoft YaHei,SimHei,Noto Sans CJK SC,Arial,sans-serif" font-size="14" fill="#172033">输入</text>
<rect x="1345" y="190" width="235" height="160" rx="10" fill="#EAF4FF" stroke="#2F80ED" stroke-width="2" filter="url(#shadow)"/>
<text x="1363" y="222" font-size="17" font-weight="700" fill="#172033"><tspan x="1363" dy="0">P4 设备器材</tspan></text>
<text x="1363" y="254" font-size="14" font-weight="400" fill="#172033"><tspan x="1363" dy="0">灯光、器材、自备说明</tspan></text>
<line x1="300" y1="850" x2="1345" y2="270" stroke="#375A7F" stroke-width="2.5" marker-end="url(#arrow)"/>
<rect x="730" y="538" width="184" height="28" rx="6" fill="#FFFFFF" stroke="#D9E2EC"/>
<text x="822" y="557" text-anchor="middle" font-family="Microsoft YaHei,SimHei,Noto Sans CJK SC,Arial,sans-serif" font-size="14" fill="#172033">输入</text>
<rect x="430" y="530" width="235" height="160" rx="10" fill="#EEFDF5" stroke="#00A86B" stroke-width="2" filter="url(#shadow)"/>
<text x="448" y="562" font-size="17" font-weight="700" fill="#172033"><tspan x="448" dy="0">P5 可用性评估</tspan></text>
<text x="448" y="594" font-size="14" font-weight="400" fill="#172033"><tspan x="448" dy="0">综合状态输出</tspan></text>
<rect x="735" y="530" width="235" height="160" rx="10" fill="#EEFDF5" stroke="#00A86B" stroke-width="2" filter="url(#shadow)"/>
<text x="753" y="562" font-size="17" font-weight="700" fill="#172033"><tspan x="753" dy="0">P6 审计通知</tspan></text>
<text x="753" y="594" font-size="14" font-weight="400" fill="#172033"><tspan x="753" dy="0">日志、消息、追踪</tspan></text>
<line x1="665" y1="270" x2="735" y2="270" stroke="#375A7F" stroke-width="2.5" marker-end="url(#arrow)"/>
<rect x="608" y="248" width="184" height="28" rx="6" fill="#FFFFFF" stroke="#D9E2EC"/>
<text x="700" y="267" text-anchor="middle" font-family="Microsoft YaHei,SimHei,Noto Sans CJK SC,Arial,sans-serif" font-size="14" fill="#172033">数据流</text>
<line x1="970" y1="270" x2="1040" y2="270" stroke="#375A7F" stroke-width="2.5" marker-end="url(#arrow)"/>
<rect x="913" y="248" width="184" height="28" rx="6" fill="#FFFFFF" stroke="#D9E2EC"/>
<text x="1005" y="267" text-anchor="middle" font-family="Microsoft YaHei,SimHei,Noto Sans CJK SC,Arial,sans-serif" font-size="14" fill="#172033">数据流</text>
<line x1="1275" y1="270" x2="1345" y2="270" stroke="#375A7F" stroke-width="2.5" marker-end="url(#arrow)"/>
<rect x="1218" y="248" width="184" height="28" rx="6" fill="#FFFFFF" stroke="#D9E2EC"/>
<text x="1310" y="267" text-anchor="middle" font-family="Microsoft YaHei,SimHei,Noto Sans CJK SC,Arial,sans-serif" font-size="14" fill="#172033">数据流</text>
<line x1="1465" y1="350" x2="550" y2="530" stroke="#375A7F" stroke-width="2.5" marker-end="url(#arrow)"/>
<rect x="915" y="418" width="184" height="28" rx="6" fill="#FFFFFF" stroke="#D9E2EC"/>
<text x="1007" y="437" text-anchor="middle" font-family="Microsoft YaHei,SimHei,Noto Sans CJK SC,Arial,sans-serif" font-size="14" fill="#172033">状态/事件</text>
<line x1="665" y1="610" x2="735" y2="610" stroke="#375A7F" stroke-width="2.5" marker-end="url(#arrow)"/>
<rect x="608" y="588" width="184" height="28" rx="6" fill="#FFFFFF" stroke="#D9E2EC"/>
<text x="700" y="607" text-anchor="middle" font-family="Microsoft YaHei,SimHei,Noto Sans CJK SC,Arial,sans-serif" font-size="14" fill="#172033">数据流</text>
<rect x="430" y="830" width="235" height="82" rx="10" fill="#F8FAFC" stroke="#375A7F" stroke-width="2" filter="url(#shadow)"/>
<text x="448" y="862" font-size="17" font-weight="700" fill="#172033"><tspan x="448" dy="0">D1 评论表</tspan></text>
<text x="448" y="894" font-size="14" font-weight="400" fill="#172033"><tspan x="448" dy="0">持久化数据</tspan></text>
<line x1="548" y1="690" x2="548" y2="830" stroke="#375A7F" stroke-width="2.5" marker-end="url(#arrow)"/>
<rect x="456" y="738" width="184" height="28" rx="6" fill="#FFFFFF" stroke="#D9E2EC"/>
<text x="548" y="757" text-anchor="middle" font-family="Microsoft YaHei,SimHei,Noto Sans CJK SC,Arial,sans-serif" font-size="14" fill="#172033">读写</text>
<rect x="735" y="830" width="235" height="82" rx="10" fill="#F8FAFC" stroke="#375A7F" stroke-width="2" filter="url(#shadow)"/>
<text x="753" y="862" font-size="17" font-weight="700" fill="#172033"><tspan x="753" dy="0">D2 运维记录表</tspan></text>
<text x="753" y="894" font-size="14" font-weight="400" fill="#172033"><tspan x="753" dy="0">持久化数据</tspan></text>
<line x1="853" y1="690" x2="853" y2="830" stroke="#375A7F" stroke-width="2.5" marker-end="url(#arrow)"/>
<rect x="761" y="738" width="184" height="28" rx="6" fill="#FFFFFF" stroke="#D9E2EC"/>
<text x="853" y="757" text-anchor="middle" font-family="Microsoft YaHei,SimHei,Noto Sans CJK SC,Arial,sans-serif" font-size="14" fill="#172033">读写</text>
<rect x="1040" y="830" width="235" height="82" rx="10" fill="#F8FAFC" stroke="#375A7F" stroke-width="2" filter="url(#shadow)"/>
<text x="1058" y="862" font-size="17" font-weight="700" fill="#172033"><tspan x="1058" dy="0">D3 负责人/待办表</tspan></text>
<text x="1058" y="894" font-size="14" font-weight="400" fill="#172033"><tspan x="1058" dy="0">持久化数据</tspan></text>
<line x1="1158" y1="690" x2="1158" y2="830" stroke="#375A7F" stroke-width="2.5" marker-end="url(#arrow)"/>
<rect x="1066" y="738" width="184" height="28" rx="6" fill="#FFFFFF" stroke="#D9E2EC"/>
<text x="1158" y="757" text-anchor="middle" font-family="Microsoft YaHei,SimHei,Noto Sans CJK SC,Arial,sans-serif" font-size="14" fill="#172033">读写</text>
<rect x="1345" y="830" width="235" height="82" rx="10" fill="#F8FAFC" stroke="#375A7F" stroke-width="2" filter="url(#shadow)"/>
<text x="1363" y="862" font-size="17" font-weight="700" fill="#172033"><tspan x="1363" dy="0">D4 设备状态表</tspan></text>
<text x="1363" y="894" font-size="14" font-weight="400" fill="#172033"><tspan x="1363" dy="0">持久化数据</tspan></text>
<line x1="1463" y1="690" x2="1463" y2="830" stroke="#375A7F" stroke-width="2.5" marker-end="url(#arrow)"/>
<rect x="1371" y="738" width="184" height="28" rx="6" fill="#FFFFFF" stroke="#D9E2EC"/>
<text x="1463" y="757" text-anchor="middle" font-family="Microsoft YaHei,SimHei,Noto Sans CJK SC,Arial,sans-serif" font-size="14" fill="#172033">读写</text>
<text x="1646" y="1018" text-anchor="end" font-family="Microsoft YaHei,SimHei,Noto Sans CJK SC,Arial,sans-serif" font-size="13" fill="#94A3B8">SVG / Visio style / latest system model</text>
</svg>