<svg xmlns="http://www.w3.org/2000/svg" width="1600" height="980" viewBox="0 0 1600 980">
<title>子系统二：场地运维与公众监督用户角色场景图</title>
<defs>
<linearGradient id="paper" x1="0" y1="0" x2="1" y2="1"><stop offset="0" stop-color="#FFFFFF"/><stop offset="1" stop-color="#F7FBFF"/></linearGradient>
<pattern id="grid" width="32" height="32" patternUnits="userSpaceOnUse"><path d="M32 0H0V32" fill="none" stroke="#EEF4FA" stroke-width="1"/></pattern>
<marker id="arrow" markerWidth="12" markerHeight="12" refX="10" refY="6" orient="auto" markerUnits="strokeWidth">
<path d="M2,2 L10,6 L2,10 Z" fill="#375A7F"/>
</marker>
<marker id="arrow-orange" markerWidth="12" markerHeight="12" refX="10" refY="6" orient="auto" markerUnits="strokeWidth">
<path d="M2,2 L10,6 L2,10 Z" fill="#C56A1A"/>
</marker>
<filter id="shadow" x="-8%" y="-8%" width="116%" height="116%"><feDropShadow dx="0" dy="2" stdDeviation="2" flood-color="#94A3B8" flood-opacity=".28"/></filter>
</defs>
<rect x="0" y="0" width="1600" height="980" fill="#FFFFFF"/>
<rect x="26" y="24" width="1548" height="932" rx="16" fill="url(#paper)" stroke="#D9E2EC" stroke-width="2"/>
<rect x="42" y="124" width="1516" height="804" fill="url(#grid)" opacity=".55"/>
<rect x="590" y="36" width="420" height="5" rx="3" fill="#2F80ED"/>
<text x="800" y="78" text-anchor="middle" font-family="Microsoft YaHei,SimHei,Noto Sans CJK SC,Arial,sans-serif" font-size="34" font-weight="700" fill="#173A5E">子系统二：场地运维与公众监督用户角色场景图</text>
<text x="800" y="112" text-anchor="middle" font-family="Microsoft YaHei,SimHei,Noto Sans CJK SC,Arial,sans-serif" font-size="18" fill="#64748B">用户角色、业务职责与系统能力边界</text>
<circle cx="170" cy="170" r="22" fill="#FFFFFF" stroke="#2F80ED" stroke-width="3"/>
<line x1="170" y1="192" x2="170" y2="252" stroke="#2F80ED" stroke-width="3"/>
<line x1="134" y1="218" x2="206" y2="218" stroke="#2F80ED" stroke-width="3"/>
<line x1="170" y1="252" x2="138" y2="294" stroke="#2F80ED" stroke-width="3"/>
<line x1="170" y1="252" x2="202" y2="294" stroke="#2F80ED" stroke-width="3"/>
<text x="170" y="326" text-anchor="middle" font-family="Microsoft YaHei,SimHei,Noto Sans CJK SC,Arial,sans-serif" font-size="17" font-weight="700" fill="#172033">普通用户</text>
<circle cx="170" cy="420" r="22" fill="#FFFFFF" stroke="#00A86B" stroke-width="3"/>
<line x1="170" y1="442" x2="170" y2="502" stroke="#00A86B" stroke-width="3"/>
<line x1="134" y1="468" x2="206" y2="468" stroke="#00A86B" stroke-width="3"/>
<line x1="170" y1="502" x2="138" y2="544" stroke="#00A86B" stroke-width="3"/>
<line x1="170" y1="502" x2="202" y2="544" stroke="#00A86B" stroke-width="3"/>
<text x="170" y="576" text-anchor="middle" font-family="Microsoft YaHei,SimHei,Noto Sans CJK SC,Arial,sans-serif" font-size="17" font-weight="700" fill="#172033">业务人员</text>
<circle cx="170" cy="670" r="22" fill="#FFFFFF" stroke="#C05621" stroke-width="3"/>
<line x1="170" y1="692" x2="170" y2="752" stroke="#C05621" stroke-width="3"/>
<line x1="134" y1="718" x2="206" y2="718" stroke="#C05621" stroke-width="3"/>
<line x1="170" y1="752" x2="138" y2="794" stroke="#C05621" stroke-width="3"/>
<line x1="170" y1="752" x2="202" y2="794" stroke="#C05621" stroke-width="3"/>
<text x="170" y="826" text-anchor="middle" font-family="Microsoft YaHei,SimHei,Noto Sans CJK SC,Arial,sans-serif" font-size="17" font-weight="700" fill="#172033">管理员</text>
<rect x="430" y="165" width="880" height="650" rx="10" fill="#F8FBFF" stroke="#375A7F" stroke-width="2" filter="url(#shadow)"/>
<text x="448" y="197" font-size="17" font-weight="700" fill="#172033"><tspan x="448" dy="0">系统能力边界</tspan></text>
<text x="448" y="229" font-size="14" font-weight="400" fill="#172033"><tspan x="448" dy="0">所有功能均围绕最新实验报告中的业务规则展开：身份权限、数据记录、状态流转、异常处理、审计追踪。</tspan></text>
<rect x="480" y="275" width="240" height="132" rx="10" fill="#FFFFFF" stroke="#2F80ED" stroke-width="2" filter="url(#shadow)"/>
<text x="498" y="307" font-size="16" font-weight="700" fill="#172033"><tspan x="498" dy="0">清洁维护台账</tspan></text>
<text x="498" y="339" font-size="14" font-weight="400" fill="#172033"><tspan x="498" dy="0">保洁打卡、维护记录、整改结果</tspan></text>
<rect x="775" y="275" width="240" height="132" rx="10" fill="#FFFFFF" stroke="#2F80ED" stroke-width="2" filter="url(#shadow)"/>
<text x="793" y="307" font-size="16" font-weight="700" fill="#172033"><tspan x="793" dy="0">负责人管理</tspan></text>
<text x="793" y="339" font-size="14" font-weight="400" fill="#172033"><tspan x="793" dy="0">责任人信息、待办派发</tspan></text>
<rect x="1070" y="275" width="240" height="132" rx="10" fill="#FFFFFF" stroke="#2F80ED" stroke-width="2" filter="url(#shadow)"/>
<text x="1088" y="307" font-size="16" font-weight="700" fill="#172033"><tspan x="1088" dy="0">公众评论监督</tspan></text>
<text x="1088" y="339" font-size="14" font-weight="400" fill="#172033"><tspan x="1088" dy="0">评分、评论、投诉与审核</tspan></text>
<rect x="480" y="510" width="240" height="132" rx="10" fill="#FFFFFF" stroke="#2F80ED" stroke-width="2" filter="url(#shadow)"/>
<text x="498" y="542" font-size="16" font-weight="700" fill="#172033"><tspan x="498" dy="0">预约联动</tspan></text>
<text x="498" y="574" font-size="14" font-weight="400" fill="#172033"><tspan x="498" dy="0">评论与预约记录关联</tspan></text>
<rect x="775" y="510" width="240" height="132" rx="10" fill="#FFFFFF" stroke="#2F80ED" stroke-width="2" filter="url(#shadow)"/>
<text x="793" y="542" font-size="16" font-weight="700" fill="#172033"><tspan x="793" dy="0">灯光器材状态</tspan></text>
<text x="793" y="574" font-size="14" font-weight="400" fill="#172033"><tspan x="793" dy="0">照明、器材、自备说明</tspan></text>
<rect x="1070" y="510" width="240" height="132" rx="10" fill="#FFFFFF" stroke="#2F80ED" stroke-width="2" filter="url(#shadow)"/>
<text x="1088" y="542" font-size="16" font-weight="700" fill="#172033"><tspan x="1088" dy="0">可用性输出</tspan></text>
<text x="1088" y="574" font-size="14" font-weight="400" fill="#172033"><tspan x="1088" dy="0">向子系统一提供预约建议</tspan></text>
<line x1="255" y1="230" x2="430" y2="320" stroke="#375A7F" stroke-width="2.5" marker-end="url(#arrow)"/>
<rect x="250" y="253" width="184" height="28" rx="6" fill="#FFFFFF" stroke="#D9E2EC"/>
<text x="342" y="272" text-anchor="middle" font-family="Microsoft YaHei,SimHei,Noto Sans CJK SC,Arial,sans-serif" font-size="14" fill="#172033">使用/查询</text>
<line x1="255" y1="480" x2="430" y2="550" stroke="#375A7F" stroke-width="2.5" marker-end="url(#arrow)"/>
<rect x="250" y="493" width="184" height="28" rx="6" fill="#FFFFFF" stroke="#D9E2EC"/>
<text x="342" y="512" text-anchor="middle" font-family="Microsoft YaHei,SimHei,Noto Sans CJK SC,Arial,sans-serif" font-size="14" fill="#172033">维护/处理</text>
<line x1="255" y1="730" x2="430" y2="650" stroke="#375A7F" stroke-width="2.5" marker-end="url(#arrow)"/>
<rect x="250" y="668" width="184" height="28" rx="6" fill="#FFFFFF" stroke="#D9E2EC"/>
<text x="342" y="687" text-anchor="middle" font-family="Microsoft YaHei,SimHei,Noto Sans CJK SC,Arial,sans-serif" font-size="14" fill="#172033">配置/审计</text>
<rect x="1325" y="250" width="180" height="360" rx="10" fill="#FFF8ED" stroke="#C56A1A" stroke-width="2" filter="url(#shadow)"/>
<text x="1343" y="282" font-size="17" font-weight="700" fill="#172033"><tspan x="1343" dy="0">输出结果</tspan></text>
<text x="1343" y="314" font-size="14" font-weight="400" fill="#172033"><tspan x="1343" dy="0">场地状态</tspan><tspan x="1343" dy="21">负面反馈待办</tspan><tspan x="1343" dy="21">可用性等级</tspan><tspan x="1343" dy="21">审计记录</tspan></text>
<line x1="1310" y1="445" x2="1325" y2="430" stroke="#C56A1A" stroke-width="2.5" marker-end="url(#arrow-orange)"/>
<rect x="1225" y="415" width="184" height="28" rx="6" fill="#FFFFFF" stroke="#D9E2EC"/>
<text x="1317" y="434" text-anchor="middle" font-family="Microsoft YaHei,SimHei,Noto Sans CJK SC,Arial,sans-serif" font-size="14" fill="#172033">业务闭环</text>
<text x="1546" y="938" text-anchor="end" font-family="Microsoft YaHei,SimHei,Noto Sans CJK SC,Arial,sans-serif" font-size="13" fill="#94A3B8">SVG / Visio style / latest system model</text>
</svg>