<svg xmlns="http://www.w3.org/2000/svg" width="1700" height="1040" viewBox="0 0 1700 1040">
<title>子系统二：UML部署图</title>
<defs>
<linearGradient id="paper" x1="0" y1="0" x2="1" y2="1"><stop offset="0" stop-color="#FFFFFF"/><stop offset="1" stop-color="#F7FBFF"/></linearGradient>
<pattern id="grid" width="32" height="32" patternUnits="userSpaceOnUse"><path d="M32 0H0V32" fill="none" stroke="#EEF4FA" stroke-width="1"/></pattern>
<marker id="arrow" markerWidth="12" markerHeight="12" refX="10" refY="6" orient="auto" markerUnits="strokeWidth">
<path d="M2,2 L10,6 L2,10 Z" fill="#375A7F"/>
</marker>
<marker id="arrow-orange" markerWidth="12" markerHeight="12" refX="10" refY="6" orient="auto" markerUnits="strokeWidth">
<path d="M2,2 L10,6 L2,10 Z" fill="#C56A1A"/>
</marker>
<filter id="shadow" x="-8%" y="-8%" width="116%" height="116%"><feDropShadow dx="0" dy="2" stdDeviation="2" flood-color="#94A3B8" flood-opacity=".28"/></filter>
</defs>
<rect x="0" y="0" width="1700" height="1040" fill="#FFFFFF"/>
<rect x="26" y="24" width="1648" height="992" rx="16" fill="url(#paper)" stroke="#D9E2EC" stroke-width="2"/>
<rect x="42" y="124" width="1616" height="864" fill="url(#grid)" opacity=".55"/>
<rect x="640" y="36" width="420" height="5" rx="3" fill="#2F80ED"/>
<text x="850" y="78" text-anchor="middle" font-family="Microsoft YaHei,SimHei,Noto Sans CJK SC,Arial,sans-serif" font-size="34" font-weight="700" fill="#173A5E">子系统二：UML部署图</text>
<text x="850" y="112" text-anchor="middle" font-family="Microsoft YaHei,SimHei,Noto Sans CJK SC,Arial,sans-serif" font-size="18" fill="#64748B">UML部署图：物理节点、网络连接与运行环境</text>
<path d="M130,180 L390,180 L420,214 L420,370 L130,370 L100,336 L100,214 Z" fill="#FFFFFF" stroke="#31546F" stroke-width="2" filter="url(#shadow)"/>
<path d="M100,214 L130,180 M390,180 L420,214" stroke="#31546F" fill="none"/>
<text x="126" y="238" font-size="17" font-weight="700" fill="#172033"><tspan x="126" dy="0">浏览器/移动端</tspan></text>
<text x="126" y="280" font-size="14" font-weight="400" fill="#172033"><tspan x="126" dy="0">用户、运维、负责人、管理员</tspan></text>
<path d="M500,180 L760,180 L790,214 L790,370 L500,370 L470,336 L470,214 Z" fill="#FFFFFF" stroke="#31546F" stroke-width="2" filter="url(#shadow)"/>
<path d="M470,214 L500,180 M760,180 L790,214" stroke="#31546F" fill="none"/>
<text x="496" y="238" font-size="17" font-weight="700" fill="#172033"><tspan x="496" dy="0">Nginx/API网关</tspan></text>
<text x="496" y="280" font-size="14" font-weight="400" fill="#172033"><tspan x="496" dy="0">HTTPS入口</tspan></text>
<path d="M870,180 L1130,180 L1160,214 L1160,370 L870,370 L840,336 L840,214 Z" fill="#FFFFFF" stroke="#31546F" stroke-width="2" filter="url(#shadow)"/>
<path d="M840,214 L870,180 M1130,180 L1160,214" stroke="#31546F" fill="none"/>
<text x="866" y="238" font-size="17" font-weight="700" fill="#172033"><tspan x="866" dy="0">应用服务器</tspan></text>
<text x="866" y="280" font-size="14" font-weight="400" fill="#172033"><tspan x="866" dy="0">运维与监督服务</tspan></text>
<path d="M1240,180 L1500,180 L1530,214 L1530,370 L1240,370 L1210,336 L1210,214 Z" fill="#FFFFFF" stroke="#31546F" stroke-width="2" filter="url(#shadow)"/>
<path d="M1210,214 L1240,180 M1500,180 L1530,214" stroke="#31546F" fill="none"/>
<text x="1236" y="238" font-size="17" font-weight="700" fill="#172033"><tspan x="1236" dy="0">通知服务节点</tspan></text>
<text x="1236" y="280" font-size="14" font-weight="400" fill="#172033"><tspan x="1236" dy="0">待办和反馈通知</tspan></text>
<path d="M315,590 L575,590 L605,624 L605,780 L315,780 L285,746 L285,624 Z" fill="#FFFFFF" stroke="#31546F" stroke-width="2" filter="url(#shadow)"/>
<path d="M285,624 L315,590 M575,590 L605,624" stroke="#31546F" fill="none"/>
<text x="311" y="648" font-size="17" font-weight="700" fill="#172033"><tspan x="311" dy="0">MySQL集群</tspan></text>
<text x="311" y="690" font-size="14" font-weight="400" fill="#172033"><tspan x="311" dy="0">评论与运维数据</tspan></text>
<path d="M685,590 L945,590 L975,624 L975,780 L685,780 L655,746 L655,624 Z" fill="#FFFFFF" stroke="#31546F" stroke-width="2" filter="url(#shadow)"/>
<path d="M655,624 L685,590 M945,590 L975,624" stroke="#31546F" fill="none"/>
<text x="681" y="648" font-size="17" font-weight="700" fill="#172033"><tspan x="681" dy="0">Redis缓存</tspan></text>
<text x="681" y="690" font-size="14" font-weight="400" fill="#172033"><tspan x="681" dy="0">状态与可用性缓存</tspan></text>
<path d="M1055,590 L1315,590 L1345,624 L1345,780 L1055,780 L1025,746 L1025,624 Z" fill="#FFFFFF" stroke="#31546F" stroke-width="2" filter="url(#shadow)"/>
<path d="M1025,624 L1055,590 M1315,590 L1345,624" stroke="#31546F" fill="none"/>
<text x="1051" y="648" font-size="17" font-weight="700" fill="#172033"><tspan x="1051" dy="0">子系统一节点</tspan></text>
<text x="1051" y="690" font-size="14" font-weight="400" fill="#172033"><tspan x="1051" dy="0">预约系统读取可用性</tspan></text>
<line x1="260" y1="275" x2="630" y2="275" stroke="#375A7F" stroke-width="2.5" marker-end="url(#arrow)"/>
<rect x="353" y="253" width="184" height="28" rx="6" fill="#FFFFFF" stroke="#D9E2EC"/>
<text x="445" y="272" text-anchor="middle" font-family="Microsoft YaHei,SimHei,Noto Sans CJK SC,Arial,sans-serif" font-size="14" fill="#172033">HTTPS</text>
<line x1="630" y1="275" x2="1000" y2="275" stroke="#375A7F" stroke-width="2.5" marker-end="url(#arrow)"/>
<rect x="723" y="253" width="184" height="28" rx="6" fill="#FFFFFF" stroke="#D9E2EC"/>
<text x="815" y="272" text-anchor="middle" font-family="Microsoft YaHei,SimHei,Noto Sans CJK SC,Arial,sans-serif" font-size="14" fill="#172033">REST</text>
<line x1="1000" y1="275" x2="1370" y2="275" stroke="#375A7F" stroke-width="2.5" marker-end="url(#arrow)"/>
<rect x="1093" y="253" width="184" height="28" rx="6" fill="#FFFFFF" stroke="#D9E2EC"/>
<text x="1185" y="272" text-anchor="middle" font-family="Microsoft YaHei,SimHei,Noto Sans CJK SC,Arial,sans-serif" font-size="14" fill="#172033">消息</text>
<line x1="1000" y1="275" x2="445" y2="685" stroke="#375A7F" stroke-width="2.5" marker-end="url(#arrow)"/>
<rect x="630" y="458" width="184" height="28" rx="6" fill="#FFFFFF" stroke="#D9E2EC"/>
<text x="722" y="477" text-anchor="middle" font-family="Microsoft YaHei,SimHei,Noto Sans CJK SC,Arial,sans-serif" font-size="14" fill="#172033">JDBC</text>
<line x1="1000" y1="275" x2="815" y2="685" stroke="#375A7F" stroke-width="2.5" marker-end="url(#arrow)"/>
<rect x="815" y="458" width="184" height="28" rx="6" fill="#FFFFFF" stroke="#D9E2EC"/>
<text x="907" y="477" text-anchor="middle" font-family="Microsoft YaHei,SimHei,Noto Sans CJK SC,Arial,sans-serif" font-size="14" fill="#172033">Cache</text>
<line x1="1000" y1="275" x2="1185" y2="685" stroke="#375A7F" stroke-width="2.5" marker-end="url(#arrow)"/>
<rect x="1000" y="458" width="184" height="28" rx="6" fill="#FFFFFF" stroke="#D9E2EC"/>
<text x="1092" y="477" text-anchor="middle" font-family="Microsoft YaHei,SimHei,Noto Sans CJK SC,Arial,sans-serif" font-size="14" fill="#172033">REST</text>
<text x="1646" y="998" text-anchor="end" font-family="Microsoft YaHei,SimHei,Noto Sans CJK SC,Arial,sans-serif" font-size="13" fill="#94A3B8">SVG / Visio style / latest system model</text>
</svg>