<svg xmlns="http://www.w3.org/2000/svg" viewBox="0 0 1600 1600" width="2048" height="2048" role="img" aria-label="UML包图">
  <defs>
    <linearGradient id="bg" x1="0" y1="0" x2="0" y2="1"><stop offset="0" stop-color="#FBFDFF"/><stop offset="1" stop-color="#EDF4FB"/></linearGradient>
    <pattern id="grid" width="40" height="40" patternUnits="userSpaceOnUse"><path d="M40 0H0V40" fill="none" stroke="#D7E2F0" stroke-width="1" opacity=".35"/></pattern>
    <filter id="shadow" x="-8%" y="-8%" width="116%" height="116%"><feDropShadow dx="0" dy="8" stdDeviation="10" flood-color="#15345E" flood-opacity=".12"/></filter>
    <marker id="arrow" viewBox="0 0 12 12" refX="10.5" refY="6" markerWidth="11" markerHeight="11" orient="auto"><path d="M1,1 L11,6 L1,11 Z" fill="#2F3A4A"/></marker>
    <marker id="arrowBlue" viewBox="0 0 12 12" refX="10.5" refY="6" markerWidth="11" markerHeight="11" orient="auto"><path d="M1,1 L11,6 L1,11 Z" fill="#2F61D5"/></marker>
    <marker id="arrowRet" viewBox="0 0 12 12" refX="10.5" refY="6" markerWidth="10" markerHeight="10" orient="auto"><path d="M1,1 L11,6 L1,11 Z" fill="#6B7280"/></marker>
    <style><![CDATA[
      text { font-family: "Microsoft YaHei", "SimHei", "Segoe UI", Arial, sans-serif; fill: #17233C; dominant-baseline: middle; }
      .title { font-size: 42px; font-weight: 800; text-anchor: middle; }
      .sub { font-size: 22px; fill: #5D6B82; text-anchor: middle; }
      .box { fill: #fff; stroke-width: 4; filter: url(#shadow); }
      .hdr { fill: #fff; font-size: 24px; font-weight: 800; text-anchor: middle; }
      .txt { font-size: 22px; } .small { font-size: 18px; fill: #5D6B82; }
      .line { fill:none; stroke:#2F3A4A; stroke-width:4; marker-end:url(#arrow); stroke-linecap:round; stroke-linejoin:round; }
      .msg { fill:none; stroke:#2F61D5; stroke-width:4; marker-end:url(#arrowBlue); stroke-linecap:round; }
      .ret { fill:none; stroke:#6B7280; stroke-width:3; stroke-dasharray:12 8; marker-end:url(#arrowRet); stroke-linecap:round; }
      .life { stroke-width:3; stroke-dasharray:12 10; opacity:.85; }
    ]]></style>
  </defs>
  <rect width="1600" height="1600" rx="28" fill="url(#bg)"/>
  <rect width="1600" height="1600" fill="url(#grid)" opacity=".22"/>
  <rect x="80" y="90" width="1440" height="1390" rx="28" fill="#FFFFFF" stroke="#D8E3F2" stroke-width="2" filter="url(#shadow)"/>
  <text x="800" y="150" class="title">UML包图</text>
<text x="800" y="205" class="sub">com.example.tiyu 后端包结构</text>
<rect x="180" y="260" width="1240" height="1040" rx="22" fill="none" stroke="#17233C" stroke-width="5"/><rect x="180" y="260" width="360" height="58" rx="14" fill="#17233C"/><text x="360" y="290" class="hdr">com.example.tiyu</text>
<rect class="box" x="230" y="360" width="310" height="250" rx="14" stroke="#2F61D5"/>
<rect x="230" y="360" width="310" height="48" rx="14" fill="#2F61D5"/><rect x="230" y="388" width="310" height="22" fill="#2F61D5"/>
<text x="385.0" y="385" class="hdr">controller</text>
<text x="254" y="442" class="small">ReservationController</text>
<text x="254" y="472" class="small">VenueController</text>
<text x="254" y="502" class="small">UserController</text>
<text x="254" y="532" class="small">CommentController</text>
<text x="254" y="562" class="small">VenueOpsController</text>
<rect class="box" x="640" y="360" width="320" height="250" rx="14" stroke="#0B9F6B"/>
<rect x="640" y="360" width="320" height="48" rx="14" fill="#0B9F6B"/><rect x="640" y="388" width="320" height="22" fill="#0B9F6B"/>
<text x="800.0" y="385" class="hdr">service</text>
<text x="664" y="442" class="small">ReservationService</text>
<text x="664" y="472" class="small">VenueService</text>
<text x="664" y="502" class="small">UserService</text>
<text x="664" y="532" class="small">VenueOpsService</text>
<text x="664" y="562" class="small">NotificationService</text>
<rect class="box" x="1060" y="360" width="300" height="190" rx="14" stroke="#0796B5"/>
<rect x="1060" y="360" width="300" height="48" rx="14" fill="#0796B5"/><rect x="1060" y="388" width="300" height="22" fill="#0796B5"/>
<text x="1210.0" y="385" class="hdr">mapper</text>
<text x="1084" y="442" class="small">ReservationMapper</text>
<text x="1084" y="472" class="small">VenueMapper</text>
<text x="1084" y="502" class="small">UserMapper</text>
<text x="1084" y="532" class="small">CommentMapper</text>
<rect class="box" x="640" y="700" width="320" height="220" rx="14" stroke="#E88B00"/>
<rect x="640" y="700" width="320" height="48" rx="14" fill="#E88B00"/><rect x="640" y="728" width="320" height="22" fill="#E88B00"/>
<text x="800.0" y="725" class="hdr">service.impl</text>
<text x="664" y="782" class="small">ReservationServiceImpl</text>
<text x="664" y="812" class="small">VenueServiceImpl</text>
<text x="664" y="842" class="small">UserServiceImpl</text>
<text x="664" y="872" class="small">VenueOpsServiceImpl</text>
<rect class="box" x="1060" y="650" width="300" height="190" rx="14" stroke="#D83B83"/>
<rect x="1060" y="650" width="300" height="48" rx="14" fill="#D83B83"/><rect x="1060" y="678" width="300" height="22" fill="#D83B83"/>
<text x="1210.0" y="675" class="hdr">entity</text>
<text x="1084" y="732" class="small">Reservation</text>
<text x="1084" y="762" class="small">Venue</text>
<text x="1084" y="792" class="small">User</text>
<text x="1084" y="822" class="small">Comment</text>
<rect class="box" x="230" y="720" width="310" height="170" rx="14" stroke="#7357D8"/>
<rect x="230" y="720" width="310" height="48" rx="14" fill="#7357D8"/><rect x="230" y="748" width="310" height="22" fill="#7357D8"/>
<text x="385.0" y="745" class="hdr">dto</text>
<text x="254" y="802" class="small">ReservationCreateRequest</text>
<text x="254" y="832" class="small">ReservationListResponse</text>
<text x="254" y="862" class="small">VenueScheduleDTO</text>
<rect class="box" x="230" y="1000" width="310" height="150" rx="14" stroke="#E88B00"/>
<rect x="230" y="1000" width="310" height="48" rx="14" fill="#E88B00"/><rect x="230" y="1028" width="310" height="22" fill="#E88B00"/>
<text x="385.0" y="1025" class="hdr">common</text>
<text x="254" y="1082" class="small">ApiResponse&lt;T&gt;</text>
<text x="254" y="1112" class="small">PageResponse</text>
<rect class="box" x="640" y="1010" width="320" height="150" rx="14" stroke="#D64545"/>
<rect x="640" y="1010" width="320" height="48" rx="14" fill="#D64545"/><rect x="640" y="1038" width="320" height="22" fill="#D64545"/>
<text x="800.0" y="1035" class="hdr">exception</text>
<text x="664" y="1092" class="small">GlobalExceptionHandler</text>
<text x="664" y="1122" class="small">BusinessException</text>
<rect class="box" x="1060" y="940" width="300" height="150" rx="14" stroke="#7DAA16"/>
<rect x="1060" y="940" width="300" height="48" rx="14" fill="#7DAA16"/><rect x="1060" y="968" width="300" height="22" fill="#7DAA16"/>
<text x="1210.0" y="965" class="hdr">config</text>
<text x="1084" y="1022" class="small">MyBatisPlusConfig</text>
<text x="1084" y="1052" class="small">SecurityConfig</text>
<rect class="box" x="1060" y="1140" width="300" height="130" rx="14" stroke="#2F61D5"/>
<rect x="1060" y="1140" width="300" height="48" rx="14" fill="#2F61D5"/><rect x="1060" y="1168" width="300" height="22" fill="#2F61D5"/>
<text x="1210.0" y="1165" class="hdr">security</text>
<text x="1084" y="1222" class="small">JwtUtil</text>
<text x="1084" y="1252" class="small">JwtAuthenticationFilter</text>
<path class="ret" d="M540 485 L640 485"/><path class="ret" d="M960 485 L1060 455"/><path class="ret" d="M800 610 L800 700"/><path class="ret" d="M540 805 L640 785"/><path class="ret" d="M960 785 L1060 745"/><text x="800" y="1370" class="small" text-anchor="middle">虚线箭头表示包之间的主要依赖方向</text>

</svg>
