<?xml version="1.0" encoding="UTF-8"?>
<svg xmlns="http://www.w3.org/2000/svg" viewBox="0 0 1380 1180" width="1380" height="1180">
  <title>Subsystem 2 Full Use Case Diagram</title>
  <style>
    .title { font: bold 18px "Microsoft YaHei", "PingFang SC", sans-serif; fill: #1a1a2e; }
    .sub { font: 13px "Microsoft YaHei", sans-serif; fill: #4a5568; }
    .sysbox { fill: #f7fafc; stroke: #2d3748; stroke-width: 2; stroke-dasharray: 8 4; }
    .actorbox { fill: #edf2f7; stroke: #2b6cb0; stroke-width: 1.8; }
    .actort { font: 13px "Microsoft YaHei", sans-serif; fill: #1a202c; text-anchor: middle; }
    .extbox { fill: #fffaf0; stroke: #c05621; stroke-width: 1.5; stroke-dasharray: 5 3; }
    .extt { font: 12px "Microsoft YaHei", sans-serif; fill: #744210; text-anchor: middle; }
    .uc { fill: #ffffff; stroke: #2f855a; stroke-width: 1.6; }
    .ucsub { fill: #f0fdf4; stroke: #15803d; stroke-width: 1.4; }
    .ucopt { fill: #fffbeb; stroke: #b45309; stroke-width: 1.35; stroke-dasharray: 4 3; }
    .uct { font: 12px "Microsoft YaHei", sans-serif; fill: #1a202c; text-anchor: middle; }
    .ucid { font: 11px "Microsoft YaHei", sans-serif; fill: #4a5568; text-anchor: middle; }
    .line { stroke: #2d3748; stroke-width: 1.4; fill: none; marker-end: url(#mArr); }
    .lineaux { stroke: #718096; stroke-width: 1.2; stroke-dasharray: 6 4; fill: none; marker-end: url(#mArrGray); }
    .lineInc { stroke: #7c3aed; stroke-width: 1.35; stroke-dasharray: 5 4; fill: none; marker-end: url(#mArrInc); }
    .lineExt { stroke: #c2410c; stroke-width: 1.35; stroke-dasharray: 5 4; fill: none; marker-end: url(#mArrExt); }
    .lineGen { stroke: #047857; stroke-width: 1.5; fill: none; }
    .note { font: 11px "Microsoft YaHei", sans-serif; fill: #4a5568; }
    .small { font: 10px "Microsoft YaHei", sans-serif; fill: #4a5568; text-anchor: middle; }
    .rel { font: bold 11px "Microsoft YaHei", sans-serif; fill: #1d4ed8; text-anchor: middle; paint-order: stroke fill; stroke: #fafafa; stroke-width: 3px; }
    .relData { font: 9px "Microsoft YaHei", sans-serif; fill: #475569; text-anchor: middle; paint-order: stroke fill; stroke: #fafafa; stroke-width: 2px; }
    .stInc { font: 10px "Microsoft YaHei", sans-serif; fill: #6d28d9; text-anchor: middle; font-weight: bold; paint-order: stroke fill; stroke: #fafafa; stroke-width: 2px; }
    .stExt { font: 10px "Microsoft YaHei", sans-serif; fill: #c2410c; text-anchor: middle; font-weight: bold; paint-order: stroke fill; stroke: #fafafa; stroke-width: 2px; }
    .stGen { font: 10px "Microsoft YaHei", sans-serif; fill: #047857; text-anchor: middle; font-weight: bold; paint-order: stroke fill; stroke: #fafafa; stroke-width: 2px; }
    .relLegend { font: 11px "Microsoft YaHei", sans-serif; fill: #334155; text-anchor: middle; }
    .panel { fill: #f1f5f9; stroke: #cbd5e1; stroke-width: 1; }
    .panelt { font: 11px "Microsoft YaHei", sans-serif; fill: #334155; }
  </style>
  <defs>
    <marker id="mArr" markerWidth="10" markerHeight="8" refX="9" refY="4" orient="auto"><polygon points="0 0, 10 4, 0 8" fill="#2d3748"/></marker>
    <marker id="mArrGray" markerWidth="10" markerHeight="8" refX="9" refY="4" orient="auto"><polygon points="0 0, 10 4, 0 8" fill="#718096"/></marker>
    <marker id="mArrInc" markerWidth="10" markerHeight="8" refX="9" refY="4" orient="auto"><polygon points="0 0, 10 4, 0 8" fill="#7c3aed"/></marker>
    <marker id="mArrExt" markerWidth="10" markerHeight="8" refX="9" refY="4" orient="auto"><polygon points="0 0, 10 4, 0 8" fill="#c2410c"/></marker>
  </defs>

  <rect width="100%" height="100%" fill="#fafafa"/>
  <text x="690" y="34" text-anchor="middle" class="title">子系统二：场地运维、资产与公众监督 — 用例图（完整版 · 补充）</text>
  <text x="690" y="58" text-anchor="middle" class="sub">关联 · 泛化 · 依赖 · «include» · «extend» · UC-O1～O10 · UC-O1a/O2a/O7a/O9a · 统一身份认证</text>

  <!-- actors -->
  <rect x="52" y="100" width="88" height="40" rx="6" class="actorbox"/>
  <text x="96" y="124" class="actort">学生</text>
  <rect x="52" y="168" width="88" height="40" rx="6" class="actorbox"/>
  <text x="96" y="192" class="actort">教师</text>
  <path d="M 96 140 L 96 198" class="lineGen"/>
  <path d="M 96 208 L 96 198" class="lineGen"/>
  <path d="M 96 198 L 96 218" class="lineGen"/>
  <path d="M 90 218 L 102 218 L 96 204 Z" fill="none" stroke="#047857" stroke-width="1.6"/>
  <text x="118" y="212" class="stGen">泛化</text>
  <rect x="40" y="218" width="112" height="44" rx="6" class="actorbox"/>
  <text x="96" y="246" class="actort">师生用户</text>

  <rect x="40" y="292" width="118" height="52" rx="6" class="actorbox"/>
  <text x="99" y="322" class="actort">保洁运维</text>

  <rect x="40" y="376" width="122" height="52" rx="6" class="actorbox"/>
  <text x="101" y="406" class="actort">场地负责人</text>

  <rect x="40" y="460" width="108" height="52" rx="6" class="actorbox"/>
  <text x="94" y="490" class="actort">管理员</text>

  <!-- system boundary -->
  <rect x="188" y="88" width="902" height="980" rx="12" class="sysbox"/>
  <text x="639" y="114" text-anchor="middle" class="title" style="font-size:15px;">场地运维与公众监督系统</text>

  <!-- main use cases -->
  <ellipse cx="480" cy="186" rx="176" ry="36" class="uc"/>
  <text x="480" y="180" class="ucid">UC-O1</text>
  <text x="480" y="198" class="uct">清洁维护台账录入</text>

  <ellipse cx="480" cy="278" rx="176" ry="36" class="uc"/>
  <text x="480" y="272" class="ucid">UC-O2</text>
  <text x="480" y="290" class="uct">复核与跟进工单</text>
  <text x="480" y="304" class="small">可选模块</text>

  <ellipse cx="480" cy="378" rx="184" ry="38" class="uc"/>
  <text x="480" y="370" class="ucid">UC-O3</text>
  <text x="480" y="388" class="uct">责任人档案与公示</text>

  <ellipse cx="480" cy="478" rx="176" ry="36" class="uc"/>
  <text x="480" y="472" class="ucid">UC-O4</text>
  <text x="480" y="490" class="uct">公众评论与监察</text>

  <ellipse cx="480" cy="578" rx="176" ry="36" class="uc"/>
  <text x="480" y="572" class="ucid">UC-O5</text>
  <text x="480" y="590" class="uct">举报队列与审核处置</text>

  <ellipse cx="480" cy="678" rx="176" ry="36" class="uc"/>
  <text x="480" y="672" class="ucid">UC-O7</text>
  <text x="480" y="690" class="uct">灯光策略与执行</text>

  <ellipse cx="480" cy="778" rx="176" ry="36" class="uc"/>
  <text x="480" y="772" class="ucid">UC-O8</text>
  <text x="480" y="790" class="uct">用具清单与缺件标记</text>

  <ellipse cx="480" cy="878" rx="196" ry="40" class="uc"/>
  <text x="480" y="868" class="ucid">UC-O9</text>
  <text x="480" y="886" class="uct">聚合输出场地可约状态</text>
  <text x="480" y="902" class="small">供预约子系统消费</text>

  <!-- sub / optional use cases -->
  <ellipse cx="920" cy="132" rx="132" ry="32" class="ucsub"/>
  <text x="920" y="126" class="ucid">UC-O1a</text>
  <text x="920" y="144" class="uct">标准登记与检查项</text>

  <ellipse cx="920" cy="278" rx="132" ry="34" class="ucsub"/>
  <text x="920" y="272" class="ucid">UC-O2a</text>
  <text x="920" y="290" class="uct">载入台账与历史</text>

  <ellipse cx="920" cy="678" rx="132" ry="34" class="ucsub"/>
  <text x="920" y="672" class="ucid">UC-O7a</text>
  <text x="920" y="690" class="uct">记录操作来源与日志</text>

  <ellipse cx="920" cy="878" rx="132" ry="34" class="ucsub"/>
  <text x="920" y="872" class="ucid">UC-O9a</text>
  <text x="920" y="890" class="uct">生成 reason_code</text>

  <ellipse cx="920" cy="478" rx="132" ry="34" class="ucopt"/>
  <text x="920" y="472" class="ucid">UC-O6</text>
  <text x="920" y="490" class="uct">评论触发运维待办</text>
  <text x="920" y="504" class="small">可选规则</text>

  <ellipse cx="920" cy="578" rx="132" ry="34" class="ucopt"/>
  <text x="920" y="572" class="ucid">UC-O10</text>
  <text x="920" y="590" class="uct">物联接入与告警</text>
  <text x="920" y="604" class="small">可选</text>

  <!-- include -->
  <path d="M 656 186 L 788 132" class="lineInc"/>
  <text x="710" y="148" class="stInc">«include»</text>

  <path d="M 656 278 L 788 278" class="lineInc"/>
  <text x="727" y="266" class="stInc">«include»</text>

  <path d="M 656 678 L 788 678" class="lineInc"/>
  <text x="727" y="666" class="stInc">«include»</text>

  <path d="M 656 878 L 788 878" class="lineInc"/>
  <text x="727" y="866" class="stInc">«include»</text>

  <!-- extend -->
  <path d="M 788 478 L 656 478" class="lineExt"/>
  <text x="722" y="466" class="stExt">«extend»</text>

  <path d="M 788 578 L 656 678" class="lineExt"/>
  <text x="708" y="612" class="stExt">«extend»</text>

  <!-- actor associations -->
  <path d="M 152 240 L 304 478" class="line"/>
  <path d="M 152 240 L 304 378" class="line"/>
  <path d="M 152 240 L 304 778" class="line"/>

  <path d="M 158 318 L 304 186" class="line"/>
  <path d="M 158 318 L 304 778" class="line"/>

  <path d="M 162 402 L 304 278" class="line"/>
  <path d="M 162 402 L 304 378" class="line"/>

  <path d="M 148 486 L 304 278" class="line"/>
  <path d="M 148 486 L 304 378" class="line"/>
  <path d="M 148 486 L 304 578" class="line"/>
  <path d="M 148 486 L 304 678" class="line"/>
  <path d="M 148 486 L 304 878" class="line"/>

  <!-- external systems -->
  <rect x="1128" y="140" width="124" height="48" rx="6" class="extbox"/>
  <text x="1190" y="168" class="extt">子系统一</text>
  <text x="1190" y="182" class="small">预约调度</text>

  <rect x="1128" y="218" width="124" height="48" rx="6" class="extbox"/>
  <text x="1190" y="246" class="extt">子系统三</text>
  <text x="1190" y="260" class="small">智能助手</text>

  <rect x="1128" y="296" width="124" height="52" rx="6" class="extbox"/>
  <text x="1190" y="324" class="extt">物联网关</text>
  <text x="1190" y="338" class="small">可选</text>

  <rect x="1128" y="374" width="124" height="52" rx="6" class="extbox"/>
  <text x="1190" y="398" class="extt">统一身份认证</text>
  <text x="1190" y="412" class="small">登录租户</text>

  <!-- dependencies (arrow at supplier / depended-on side per diagram convention) -->
  <path d="M 1128 164 L 676 878" class="lineaux"/>
  <path d="M 1128 242 L 676 478" class="lineaux"/>
  <path d="M 1128 322 L 676 678" class="lineaux"/>
  <path d="M 1128 400 L 304 478" class="lineaux"/>
  <path d="M 1128 400 L 304 578" class="lineaux"/>
  <path d="M 1128 400 L 304 378" class="lineaux"/>

  <!-- association labels -->
  <text x="212" y="348" class="rel">«关联»</text>
  <text x="212" y="388" class="rel">«关联»</text>
  <text x="212" y="428" class="rel">«关联»</text>
  <text x="232" y="268" class="rel">«关联»</text>
  <text x="232" y="308" class="rel">«关联»</text>
  <text x="242" y="448" class="rel">«关联»</text>
  <text x="242" y="488" class="rel">«关联»</text>
  <text x="242" y="528" class="rel">«关联»</text>
  <text x="242" y="568" class="rel">«关联»</text>
  <text x="242" y="608" class="rel">«关联»</text>
  <text x="242" y="648" class="rel">«关联»</text>

  <!-- dependency labels -->
  <text x="880" y="500" class="rel">«依赖»</text>
  <text x="880" y="514" class="relData">运维结构化摘要</text>
  <text x="880" y="720" class="rel">«依赖»</text>
  <text x="880" y="734" class="relData">设备状态与告警</text>
  <text x="840" y="820" class="rel">«依赖»</text>
  <text x="840" y="834" class="relData">消费可约状态 API</text>
  <text x="720" y="340" class="rel">«依赖»</text>
  <text x="720" y="354" class="relData">登录上下文</text>

  <!-- FR / DFD trace panel -->
  <rect x="40" y="1088" width="1300" height="82" rx="8" class="panel"/>
  <text x="56" y="1112" class="panelt">FR 追溯：O1→FR-O1 · O2→FR-O2 · O3→FR-O3 · O4→FR-O4 · O5→FR-O5 · O6→FR-O6 · O7→FR-O7 · O8→FR-O8 · O9→FR-O9 · O10→FR-O10</text>
  <text x="56" y="1136" class="panelt">DFD 边界流：F1 评论查询 · F2 清洁记录 · F3 复核任务 · F4 策略配置 · F5 预约联动 · F6 可约状态 · F7 运维摘要 · F8 回读告警（可选物联）</text>
  <text x="56" y="1160" class="panelt">补充说明：UC-O1a 落实台账必填字段与检查项（«include»）；登录类用例经统一身份认证解析租户与账号。</text>

  <text x="690" y="1076" text-anchor="middle" class="relLegend">图例：实线«关联» · 绿线空心三角«泛化» · 灰虚线«依赖» · 紫虚线«include» · 橙虚线«extend»（扩展→基础） · 浅橙椭圆可选（UC-O6、UC-O10）</text>
</svg>
